<svg width="24" height="25" viewBox="0 0 24 25" fill="none" xmlns="http://www.w3.org/2000/svg">
<path fill-rule="evenodd" clip-rule="evenodd" d="M11.9998 3.67028L9.78697 5.95978C9.55144 6.20347 9.22706 6.34108 8.88816 6.34108H5.74977V9.47947C5.74977 9.81838 5.61216 10.1427 5.36847 10.3783L3.07897 12.5911L5.36847 14.8039C5.61216 15.0394 5.74977 15.3638 5.74977 15.7027V18.8411H8.88816C9.22706 18.8411 9.55144 18.9787 9.78697 19.2224L11.9998 21.5119L14.2126 19.2224C14.4481 18.9787 14.7725 18.8411 15.1114 18.8411H18.2498V15.7027C18.2498 15.3638 18.3874 15.0394 18.6311 14.8039L20.9206 12.5911L18.6311 10.3783C18.3874 10.1428 18.2498 9.81838 18.2498 9.47948V6.34108H15.1114C14.7725 6.34108 14.4481 6.20347 14.2126 5.95978L11.9998 3.67028ZM11.101 2.44185C11.5924 1.93345 12.4072 1.93345 12.8986 2.44185L15.2175 4.84108H18.4998C19.1902 4.84108 19.7498 5.40073 19.7498 6.09108V9.37342L22.149 11.6923C22.6574 12.1837 22.6574 12.9985 22.149 13.4899L19.7498 15.8088V19.0911C19.7498 19.7815 19.1902 20.3411 18.4998 20.3411H15.2175L12.8986 22.7403C12.4072 23.2487 11.5924 23.2487 11.101 22.7403L8.7821 20.3411H5.49977C4.80941 20.3411 4.24977 19.7815 4.24977 19.0911V15.8088L1.85054 13.4899C1.34214 12.9985 1.34213 12.1837 1.85054 11.6923L4.24977 9.37341V6.09108C4.24977 5.40072 4.80941 4.84108 5.49977 4.84108H8.7821L11.101 2.44185Z" fill="white"/>
<path fill-rule="evenodd" clip-rule="evenodd" d="M7.25 12.5913C7.25 9.96796 9.37665 7.84131 12 7.84131C14.6234 7.84131 16.75 9.96796 16.75 12.5913C16.75 15.2147 14.6234 17.3413 12 17.3413C9.37665 17.3413 7.25 15.2147 7.25 12.5913ZM12 9.34131C10.2051 9.34131 8.75 10.7964 8.75 12.5913C8.75 14.3862 10.2051 15.8413 12 15.8413C13.7949 15.8413 15.25 14.3862 15.25 12.5913C15.25 10.7964 13.7949 9.34131 12 9.34131Z" fill="white"/>
</svg>
