<svg width="11" height="11" viewBox="0 0 11 11" fill="none" xmlns="http://www.w3.org/2000/svg">
<path d="M1 2.45282V1.06981C1 0.660029 1.2 0.30147 1.55 0.1478C1.9 -0.0570914 2.35 -0.0058685 2.7 0.199025L5.35 2.04304C5.45 2.09426 5.55 2.09426 5.65 2.04304L8.3 0.199025C8.65 -0.0570915 9.04999 -0.0570909 9.44999 0.1478C9.79999 0.30147 9.99999 0.660029 9.99999 1.06981V2.45282C9.99999 2.96505 9.74999 3.47728 9.3 3.73339L6.4 5.73109C5.85 6.08964 5.15 6.08964 4.6 5.73109L1.7 3.73339C1.25 3.47728 1 2.96505 1 2.45282ZM8.85 1.01858L6.2 2.8626C5.8 3.16994 5.2 3.16994 4.8 2.8626L2.15 1.01858C2.1 0.967364 2.05 1.01858 2.05 1.01858C2 1.06981 2 1.06981 2 1.06981V2.45282C2 2.60649 2.1 2.81138 2.25 2.91383L5.15 4.91149C5.35 5.06519 5.65 5.06519 5.85 4.91149L8.75 2.91383C8.9 2.81138 9 2.60649 9 2.45282V1.06981C9 1.06981 9 1.06981 8.95 1.01858C8.95 1.01858 8.9 1.01858 8.85 1.01858Z" fill="white"/>
<path d="M1 7.45279V6.06979C1 5.66004 1.2 5.30144 1.55 5.14779C1.9 4.94289 2.35 4.99414 2.7 5.19899L5.35 7.04304C5.45 7.09424 5.55 7.09424 5.65 7.04304L8.3 5.19899C8.65 4.94289 9.04999 4.94289 9.44999 5.14779C9.79999 5.30144 9.99999 5.66004 9.99999 6.06979V7.45279C9.99999 7.96504 9.74999 8.47729 9.3 8.73339L6.4 10.7311C5.85 11.0896 5.15 11.0896 4.6 10.7311L1.7 8.73339C1.25 8.42604 1 7.96504 1 7.45279ZM9 6.06979C9 6.01859 9 6.01859 9 6.06979C8.95 6.01859 8.9 6.01859 8.85 6.01859L6.2 7.86259C5.8 8.16994 5.2 8.16994 4.8 7.86259L2.15 6.01859C2.1 5.96734 2.05 6.01859 2.05 6.01859C2 6.01859 2 6.06979 2 6.06979V7.45279C2 7.60649 2.1 7.81139 2.25 7.91384L5.15 9.91149C5.35 10.0652 5.65 10.0652 5.85 9.91149L8.75 7.91384C8.9 7.76014 9 7.60649 9 7.45279V6.06979Z" fill="white"/>
</svg>
