<svg width="16" height="12" viewBox="0 0 16 12" fill="none" xmlns="http://www.w3.org/2000/svg">
<path d="M8 4.5C7.4477 4.5 7 4.94771 7 5.5C7 6.0523 7.4477 6.5 8 6.5C8.5523 6.5 9 6.0523 9 5.5C9 4.94771 8.5523 4.5 8 4.5Z" fill="white"/>
<path d="M6 8.75C6 7.92155 6.67158 7.25 7.5 7.25H8.5C9.32845 7.25 10 7.92155 10 8.75C10 9.02615 9.77615 9.25 9.5 9.25H6.5C6.22386 9.25 6 9.02615 6 8.75Z" fill="white"/>
<path fill-rule="evenodd" clip-rule="evenodd" d="M5.5 1.125C4.74061 1.125 4.125 1.74061 4.125 2.5V9.5C4.125 10.2594 4.74061 10.875 5.5 10.875H10.5C11.2594 10.875 11.875 10.2594 11.875 9.5V4.09895C11.875 3.91589 11.8176 3.73744 11.7108 3.58873L10.2043 1.48977C10.0399 1.26078 9.7753 1.125 9.4934 1.125H5.5ZM4.875 2.5C4.875 2.15482 5.15482 1.875 5.5 1.875H9.125V4.07352C9.125 4.28063 9.2929 4.44852 9.5 4.44852H11.125V9.5C11.125 9.8452 10.8452 10.125 10.5 10.125H5.5C5.15482 10.125 4.875 9.8452 4.875 9.5V2.5Z" fill="white"/>
</svg>
