<svg width="256" height="256" viewBox="0 0 256 256" fill="none" xmlns="http://www.w3.org/2000/svg">
<path fill-rule="evenodd" clip-rule="evenodd" d="M125.038 184.871C126.138 185.532 127.315 185.824 128.458 185.81C129.601 185.824 130.779 185.532 131.878 184.871L141.642 179.014C160.789 167.526 184.206 165.649 204.939 173.942C212.586 177.001 220.906 171.369 220.906 163.132V62.8679C220.906 57.8977 217.88 53.4282 213.265 51.5823C186.562 40.9011 156.401 43.3178 131.739 58.1147L128.458 60.0834L125.178 58.1147C100.516 43.3178 70.3546 40.9011 43.6515 51.5823C39.0368 53.4282 36.0108 57.8977 36.0108 62.8679V163.132C36.0108 171.369 44.3301 177.001 51.9781 173.942C72.7105 165.649 96.1277 167.526 115.275 179.014L125.038 184.871ZM48.9104 63.3738V161.298C72.9536 152.285 99.8365 154.708 121.912 167.952L122.009 168.011V71.2569L118.54 69.1761C97.4797 56.5397 71.7544 54.404 48.9104 63.3738ZM135.004 167.952L134.908 168.011V71.2569L138.376 69.1761C159.437 56.5397 185.163 54.404 208.006 63.3738V161.298C183.963 152.285 157.08 154.708 135.004 167.952Z" fill="white"/>
<path d="M105.025 188.365C87.6206 178.213 66.0988 178.213 48.6941 188.365L47.8105 188.881C44.7336 190.675 43.6943 194.624 45.4892 197.701C47.284 200.778 51.2333 201.818 54.3102 200.023L55.1939 199.507C68.5821 191.698 85.1373 191.698 98.5255 199.507L107.876 204.962C120.595 212.381 136.322 212.381 149.041 204.962L158.391 199.507C171.78 191.698 188.334 191.698 201.723 199.507L202.606 200.023C205.683 201.818 209.632 200.778 211.427 197.701C213.222 194.624 212.183 190.675 209.106 188.881L208.223 188.365C190.818 178.213 169.296 178.213 151.891 188.365L142.541 193.819C133.839 198.896 123.077 198.896 114.375 193.819L105.025 188.365Z" fill="white"/>
</svg>
