<svg width="256" height="256" viewBox="0 0 256 256" fill="none" xmlns="http://www.w3.org/2000/svg">
<path fill-rule="evenodd" clip-rule="evenodd" d="M207.579 72.5826C209.196 75.0328 208.926 78.3625 206.77 80.5196L129.401 157.888C128.607 158.682 127.617 159.249 126.532 159.533L94.3094 167.95C93.2585 168.224 92.1752 168.218 91.1573 167.959C90.0752 167.684 89.0671 167.122 88.2505 166.305C86.6659 164.721 86.0402 162.415 86.6066 160.247L95.0233 128.024C95.2713 127.074 95.7367 126.137 96.3805 125.401L174.037 47.7864C174.716 47.1067 175.535 46.5979 176.426 46.2879C177.087 46.058 177.787 45.9375 178.5 45.9375C180.174 45.9375 181.78 46.6026 182.963 47.7864L206.77 71.5923C207.078 71.9005 207.347 72.2325 207.579 72.5826ZM193.379 76.056L178.5 61.1772L106.806 132.872L101.545 153.011L121.684 147.751L193.379 76.056Z" fill="white"/>
<path d="M192.315 171.433C194.616 151.758 195.349 131.946 194.511 112.183C194.472 111.237 194.828 110.316 195.497 109.647L203.773 101.37C204.79 100.353 206.529 100.999 206.624 102.435C208.181 125.914 207.591 149.5 204.854 172.9C202.863 189.922 189.192 203.263 172.257 205.156C143.08 208.416 112.92 208.416 83.7433 205.156C66.8084 203.263 53.137 189.922 51.146 172.9C47.657 143.068 47.657 112.932 51.146 83.1007C53.137 66.0777 66.8084 52.7372 83.7433 50.8445C105.877 48.3708 128.577 47.7736 150.983 49.053C152.427 49.1355 153.085 50.8829 152.062 51.9057L143.709 60.2597C143.047 60.922 142.138 61.2778 141.202 61.2462C122.463 60.6142 103.596 61.3292 85.1456 63.3914C73.9505 64.6426 64.9826 73.4768 63.6855 84.5673C60.3104 113.424 60.3104 142.576 63.6855 171.433C64.9826 182.523 73.9505 191.357 85.1456 192.609C113.39 195.765 142.61 195.765 170.854 192.609C182.05 191.357 191.017 182.523 192.315 171.433Z" fill="white"/>
</svg>
