<svg width="256" height="256" viewBox="0 0 256 256" fill="none" xmlns="http://www.w3.org/2000/svg">
<path fill-rule="evenodd" clip-rule="evenodd" d="M128 64.4648L112.24 80.7709C110.563 82.5065 108.252 83.4866 105.839 83.4866H83.4866V105.839C83.4866 108.252 82.5066 110.563 80.771 112.24L64.4648 128L80.771 143.76C82.5066 145.437 83.4866 147.748 83.4866 150.161V172.514H105.839C108.252 172.514 110.563 173.494 112.24 175.229L128 191.535L143.76 175.229C145.437 173.494 147.748 172.514 150.161 172.514H172.514V150.161C172.514 147.748 173.494 145.437 175.229 143.76L191.535 128L175.229 112.24C173.494 110.563 172.514 108.252 172.514 105.839V83.4866H150.161C147.748 83.4866 145.437 82.5065 143.76 80.7709L128 64.4648ZM121.599 55.7157C125.099 52.0948 130.902 52.0948 134.402 55.7157L150.917 72.8034H174.294C179.211 72.8034 183.197 76.7893 183.197 81.7061V105.083L200.284 121.599C203.905 125.099 203.905 130.902 200.284 134.401L183.197 150.917V174.294C183.197 179.211 179.211 183.197 174.294 183.197H150.917L134.402 200.284C130.902 203.905 125.099 203.905 121.599 200.284L105.083 183.197H81.7061C76.7892 183.197 72.8034 179.211 72.8034 174.294V150.917L55.7157 134.401C52.0948 130.902 52.0947 125.099 55.7157 121.599L72.8034 105.083V81.7061C72.8034 76.7892 76.7892 72.8034 81.7061 72.8034H105.083L121.599 55.7157Z" fill="white"/>
<path fill-rule="evenodd" clip-rule="evenodd" d="M94.17 128C94.17 109.316 109.316 94.1698 128 94.1698C146.684 94.1698 161.83 109.316 161.83 128C161.83 146.684 146.684 161.83 128 161.83C109.316 161.83 94.17 146.684 94.17 128ZM128 104.853C115.217 104.853 104.853 115.216 104.853 128C104.853 140.784 115.217 151.147 128 151.147C140.784 151.147 151.147 140.784 151.147 128C151.147 115.216 140.784 104.853 128 104.853Z" fill="white"/>
</svg>
