<svg width="256" height="256" viewBox="0 0 256 256" fill="none" xmlns="http://www.w3.org/2000/svg">
<path fill-rule="evenodd" clip-rule="evenodd" d="M54.2338 158.368C31.7294 103.131 72.367 42.6942 132.013 42.6942H135.231C179.839 42.6942 216 78.8556 216 123.462C216 173.128 175.738 213.389 126.073 213.389H47.7813C44.5951 213.389 41.7558 211.378 40.6984 208.372C39.6409 205.367 40.5955 202.021 43.0797 200.026L62.8172 184.175C63.6802 183.482 63.9855 182.305 63.5678 181.279L54.2338 158.368ZM132.013 57.7113C83.0319 57.7113 49.6606 107.342 68.1411 152.703L77.4751 175.614C80.3984 182.789 78.2615 191.033 72.2204 195.884L69.1224 198.372H126.073C167.444 198.372 200.983 164.834 200.983 123.462C200.983 87.1494 171.545 57.7113 135.231 57.7113H132.013Z" fill="white"/>
<path d="M181.181 104.796L181.172 104.792L160.729 97.397C159.696 97.0235 158.556 97.5524 158.174 98.5819L156.667 102.642C156.28 103.683 156.817 104.84 157.861 105.218L168.413 109.036L152.449 113.461L133.146 99.9508C132.452 99.4649 131.527 99.4692 130.837 99.9617L111.953 113.447L82.0783 104.03C80.5566 103.551 79.1134 104.958 79.5553 106.492L89.3969 140.641C89.6437 141.497 90.4274 142.087 91.3187 142.087H95.4271C96.764 142.087 97.7245 140.801 97.3448 139.519L90.351 115.912L111.372 122.305C111.959 122.484 112.596 122.383 113.099 122.031L131.999 108.827L151.303 122.045C151.801 122.386 152.426 122.484 153.005 122.311L172.77 116.414L168.192 129.532C167.738 130.832 168.703 132.191 170.08 132.191H174.532C175.385 132.191 176.145 131.65 176.423 130.843L184.288 108.036C184.641 107.011 184.113 105.89 183.096 105.51L181.181 104.796Z" fill="white" stroke="white" stroke-width="2"/>
<path d="M93.086 155.34L93.0914 155.357L93.0974 155.374L93.648 156.938C93.9298 157.739 94.6859 158.274 95.5345 158.274H166.526C167.397 158.274 168.168 157.71 168.432 156.88L168.919 155.348L168.92 155.345L169.803 152.595C170.218 151.304 169.255 149.983 167.899 149.983H94.1333C92.7843 149.983 91.8222 151.291 92.2242 152.579L93.086 155.34Z" fill="white" stroke="white" stroke-width="2"/>
</svg>
