<svg width="256" height="256" viewBox="0 0 256 256" fill="none" xmlns="http://www.w3.org/2000/svg">
<path d="M92.0042 108.683C85.5844 108.683 80.3803 113.887 80.3803 120.308C80.3803 126.727 85.5844 131.931 92.0042 131.931C98.4239 131.931 103.628 126.727 103.628 120.308C103.628 113.887 98.4239 108.683 92.0042 108.683Z" fill="white"/>
<path d="M129.201 108.683C122.78 108.683 117.577 113.887 117.577 120.308C117.577 126.727 122.78 131.931 129.201 131.931C135.621 131.931 140.824 126.727 140.824 120.308C140.824 113.887 135.621 108.683 129.201 108.683Z" fill="white"/>
<path d="M154.773 120.308C154.773 113.887 159.977 108.683 166.397 108.683C172.817 108.683 178.021 113.887 178.021 120.308C178.021 126.727 172.817 131.931 166.397 131.931C159.977 131.931 154.773 126.727 154.773 120.308Z" fill="white"/>
<path fill-rule="evenodd" clip-rule="evenodd" d="M167.333 63.0508C142.28 60.9142 117.096 60.7902 92.0222 62.6801L90.2253 62.8154C66.3145 64.6176 47.8334 84.544 47.8334 108.523V187.726C47.8334 190.18 49.1229 192.453 51.2289 193.712C53.335 194.971 55.9479 195.03 58.1093 193.869L94.4761 174.325C96.1677 173.416 98.0582 172.94 99.9787 172.94H183.452C193.979 172.94 203 165.414 204.888 155.056C208.713 134.066 209.014 112.586 205.781 91.4964L204.829 85.2815C203.095 73.9668 193.839 65.3111 182.433 64.3385L167.333 63.0508ZM93.0705 76.5892C117.4 74.7555 141.838 74.8758 166.149 76.949L181.248 78.2366C186.236 78.662 190.283 82.4471 191.041 87.3949L191.994 93.6098C194.992 113.168 194.712 133.09 191.165 152.557C190.485 156.283 187.239 158.992 183.452 158.992H99.9787C95.7537 158.992 91.5946 160.038 87.873 162.038L61.782 176.06V108.523C61.782 91.8409 74.6392 77.9784 91.2736 76.7247L93.0705 76.5892Z" fill="white"/>
</svg>
