<svg width="256" height="256" viewBox="0 0 256 256" fill="none" xmlns="http://www.w3.org/2000/svg">
<path fill-rule="evenodd" clip-rule="evenodd" d="M138.488 49.5229C132.392 46.3413 124.131 46.2922 117.987 49.4657C94.4343 61.6295 73.0714 75.5764 54.351 91.0454C51.456 93.4375 49.4015 96.9136 49.4366 101.005C49.4715 105.08 51.5677 108.509 54.4451 110.862C73.0101 126.042 94.3906 140.002 117.512 152.069C123.608 155.251 131.869 155.3 138.013 152.126C161.566 139.963 182.929 126.015 201.649 110.546C204.544 108.154 206.599 104.678 206.564 100.587C206.528 96.5121 204.433 93.0824 201.555 90.7297C182.99 75.5499 161.609 61.5905 138.488 49.5229ZM124.239 61.5715C126.416 60.4472 129.992 60.4579 132.184 61.6017C154.25 73.1187 174.582 86.3685 192.197 100.68C174.478 115.222 154.205 128.429 131.761 140.02C129.584 141.144 126.008 141.134 123.816 139.99C101.75 128.473 81.4176 115.223 63.8029 100.912C81.5227 86.3702 101.794 73.1631 124.239 61.5715Z" fill="white"/>
<path d="M211.539 134.341C213.532 137.532 212.56 141.735 209.368 143.728L153.895 178.362C146.367 183.061 137.028 185.234 127.999 185.234C118.971 185.235 109.631 183.063 102.102 178.364L47.2359 144.123C44.044 142.131 43.0713 137.928 45.0634 134.736C47.0554 131.544 51.2578 130.571 54.4496 132.563L109.316 166.806C114.259 169.89 120.973 171.61 127.998 171.609C135.024 171.609 141.738 169.889 146.679 166.804L202.154 132.17C205.345 130.177 209.547 131.149 211.539 134.341Z" fill="white"/>
<path d="M211.539 168.445C213.532 171.637 212.56 175.839 209.369 177.832L161.329 207.833C151.722 213.833 139.705 216.655 127.999 216.656C116.293 216.657 104.275 213.836 94.6672 207.838L47.2352 178.227C44.0436 176.235 43.0715 172.032 45.0639 168.841C47.0562 165.65 51.2587 164.678 54.4504 166.67L101.882 196.279C108.904 200.663 118.295 203.032 127.998 203.031C137.701 203.03 147.091 200.661 154.112 196.277L202.153 166.276C205.344 164.283 209.547 165.254 211.539 168.445Z" fill="white"/>
</svg>
