<svg width="256" height="256" viewBox="0 0 256 256" fill="none" xmlns="http://www.w3.org/2000/svg">
<path d="M139.875 110.188C139.875 106.908 137.217 104.25 133.938 104.25H86.4375C83.1583 104.25 80.5 106.908 80.5 110.188C80.5 113.467 83.1583 116.125 86.4375 116.125H133.938C137.217 116.125 139.875 113.467 139.875 110.188Z" fill="white"/>
<path d="M131.958 133.938C131.958 130.658 129.3 128 126.021 128H86.4375C83.1583 128 80.5 130.658 80.5 133.938C80.5 137.217 83.1583 139.875 86.4375 139.875H126.021C129.3 139.875 131.958 137.217 131.958 133.938Z" fill="white"/>
<path d="M133.938 151.75C137.217 151.75 139.875 154.408 139.875 157.688C139.875 160.967 137.217 163.625 133.938 163.625H86.4375C83.1583 163.625 80.5 160.967 80.5 157.688C80.5 154.408 83.1583 151.75 86.4375 151.75H133.938Z" fill="white"/>
<path fill-rule="evenodd" clip-rule="evenodd" d="M80.5 205.187H183.417C195.44 205.187 205.188 195.44 205.188 183.417V139.875C205.188 136.596 202.529 133.937 199.25 133.937H173.521V72.1337C173.521 60.8652 160.784 54.3104 151.614 60.8602L150.228 61.85C144.049 66.2634 135.68 66.2486 129.472 61.8144C119.15 54.4414 105.184 54.4414 94.8614 61.8144C88.6535 66.2486 80.2839 66.2634 74.105 61.85L72.7193 60.8602C63.5496 54.3104 50.8125 60.8652 50.8125 72.1337V175.5C50.8125 191.896 64.104 205.187 80.5 205.187ZM101.764 71.4775C107.957 67.0537 116.377 67.0537 122.57 71.4775C132.877 78.8403 146.793 78.8965 157.13 71.5131L158.516 70.5232C159.827 69.5876 161.646 70.524 161.646 72.1337V183.417C161.646 186.98 162.502 190.344 164.02 193.312H80.5C70.6624 193.312 62.6875 185.338 62.6875 175.5V72.1337C62.6875 70.524 64.5071 69.5876 65.817 70.5232L67.2029 71.5131C77.5396 78.8965 91.4559 78.8402 101.764 71.4775ZM173.521 183.417V145.812H193.312V183.417C193.312 188.882 188.882 193.312 183.417 193.312C177.951 193.312 173.521 188.882 173.521 183.417Z" fill="white"/>
</svg>
