<svg width="256" height="256" viewBox="0 0 256 256" fill="none" xmlns="http://www.w3.org/2000/svg">
<path fill-rule="evenodd" clip-rule="evenodd" d="M45.6504 46.7148C44.8268 47.0795 43.6748 47.9103 43.0903 48.561C42.5058 49.2112 32.6448 66.3743 21.1776 86.7005C-1.81867 127.464 -1.26912 126.27 1.09331 130.338C2.05664 131.997 3.86502 133.313 11.97 138.256C19.81 143.036 22.1265 144.222 23.9379 144.381C27.7717 144.717 30.1571 142.779 33.5543 136.567C34.3264 135.156 34.5371 135.039 35.2528 135.631C36.0644 136.303 43.3888 145.21 44.0786 146.365C44.2772 146.697 43.8864 147.816 43.2106 148.852C39.8888 153.94 40.6545 161.024 45.0913 166.253C46.5703 167.995 51.9061 170.884 53.6466 170.884C54.5909 170.884 54.7866 171.229 55.0372 173.34C55.5044 177.271 57.2174 180.585 60.1733 183.278C63.1487 185.989 66.3257 187.301 69.911 187.301H72.2809L73.4958 189.946C75.0157 193.255 77.8188 196.038 81.2075 197.603C83.3248 198.581 84.5008 198.789 87.3938 198.695L90.9661 198.58L91.9464 200.527C93.329 203.273 96.1392 206.069 99.0581 207.604C102.424 209.375 107.986 209.475 111.119 207.823C112.745 206.965 115.446 204.248 117.131 201.773C117.208 201.661 119.574 202.266 122.39 203.118C137.636 207.732 145.855 207.822 152.47 203.445C154.98 201.785 157.528 199.333 159.214 196.955C159.794 196.138 160.706 195.842 163.447 195.579C170.251 194.928 174.538 191.486 176.422 185.166C177.257 182.364 177.777 181.847 179.775 181.836C182.618 181.82 186.541 179.865 188.836 177.32C190.888 175.045 192.647 171.377 192.647 169.371C192.647 168.723 193.288 168.458 195.477 168.202C199.025 167.786 202.387 166.327 204.545 164.266C208.362 160.623 210.031 154.373 208.434 149.703C207.987 148.395 207.621 147.283 207.621 147.232C207.621 147.182 209.137 146.008 210.99 144.624C212.843 143.24 215.813 140.635 217.589 138.834C219.365 137.035 220.975 135.561 221.165 135.561C221.355 135.561 222.32 137.004 223.31 138.768C225.674 142.982 227.494 144.269 231.08 144.263C233.712 144.259 234.226 144.012 243.535 138.293C251.924 133.139 253.428 132.023 254.601 130.089C255.426 128.729 255.974 127.085 255.998 125.902C256.02 124.83 255.884 124.106 255.696 124.293C255.508 124.48 255.093 124.012 254.772 123.251C253.653 120.6 213.474 49.7336 212.423 48.56C211.841 47.9093 210.641 47.0695 209.758 46.6944C206.42 45.2765 205.292 45.6656 195.312 51.6738C190.14 54.7877 185.297 57.9298 184.55 58.6557C182.93 60.2303 181.97 63.3983 182.45 65.5808C182.641 66.447 183.446 68.3031 184.24 69.7055L185.684 72.2552L183.453 72.8149C179.575 73.7885 175.388 73.4502 166.253 71.4249C152.445 68.3638 150.555 68.1439 138.74 68.222C122.986 68.327 110.431 70.0518 103.752 73.0293C100.913 74.2949 99.3771 75.5476 97.2972 78.2948L96.0359 79.9609L90.5588 79.1206C80.9319 77.6431 79.5249 77.1436 72.4471 72.6875L70.2938 71.3319L71.5132 69.2439C72.1836 68.0957 72.8858 66.447 73.073 65.5808C73.5507 63.3704 72.5844 60.2452 70.9147 58.6005C70.1366 57.8333 65.2885 54.6877 60.1418 51.6092C50.1985 45.6616 48.9661 45.2457 45.6504 46.7148ZM29.5572 88.1751C19.0882 106.713 9.9555 122.896 9.2617 124.136L7.99988 126.393L16.1877 131.424L24.3751 136.455L44.4964 100.825C55.5633 81.229 64.6176 64.8759 64.6176 64.4853C64.6176 63.8117 50.229 54.5334 49.1174 54.4902C48.8279 54.4792 40.0261 69.6374 29.5572 88.1751ZM198.361 59.1009C194.228 61.6158 190.778 63.8555 190.693 64.0779C190.608 64.3003 199.675 80.6783 210.842 100.474L231.144 136.465L239.223 131.544C243.666 128.837 247.247 126.397 247.179 126.122C246.827 124.692 206.849 54.4742 206.401 54.4991C206.111 54.515 202.493 56.5861 198.361 59.1009ZM132.5 76.1596C120.433 77.0715 110.599 78.5784 107.039 80.0609C105.839 80.5604 103.999 82.7658 99.6881 88.8666C89.3819 103.454 86.2263 108.531 85.9503 110.971L85.7012 113.174L88.6361 113.164C95.9939 113.137 104.436 107.798 111.039 98.9956C112.066 97.6275 113.159 96.3385 113.469 96.131C114.459 95.4683 125.04 92.2794 126.249 92.2794C127.941 92.2794 145.689 101.696 156.958 108.573C168.417 115.566 192.237 132.692 201.186 140.372C201.886 140.972 202.347 140.818 204.759 139.182C206.282 138.148 209.703 135.221 212.361 132.676L217.193 128.051L203.945 104.568C196.659 91.653 190.384 80.6609 190.003 80.142C189.331 79.2286 189.228 79.2266 186.86 80.0694C185.456 80.5684 182.279 81.0469 179.419 81.1902C174.948 81.4146 173.572 81.2494 166.211 79.6042C161.691 78.5943 156.188 77.4411 153.982 77.0411C150.001 76.3192 137.291 75.7979 132.5 76.1596ZM61.9617 86.2065C47.9419 110.886 38.912 127.051 38.912 127.469C38.912 127.73 39.3907 128.371 39.9752 128.893C40.5602 129.414 42.9465 132.148 45.279 134.967L49.5197 140.095L50.5799 139.103C53.5268 136.345 59.3577 135.297 63.5205 136.777C66.2558 137.75 69.2207 139.931 70.765 142.108C71.5017 143.148 72.217 143.99 72.3543 143.98C72.4915 143.97 73.4304 142.88 74.4412 141.556C75.676 139.94 77.1949 138.704 79.0732 137.788C87.3968 133.729 98.1717 140.158 99.168 149.779C99.4245 152.257 99.5413 152.448 100.997 152.761C107.612 154.183 112.894 160.527 112.989 167.164L113.034 170.324L115.08 170.896C117.698 171.628 121.596 174.563 123.329 177.106C125.07 179.662 125.762 182.025 125.762 185.419C125.762 188.64 125.07 190.933 123.437 193.127L122.247 194.725L126.375 195.961C139.048 199.754 145.06 199.63 149.62 195.484L151.967 193.349L139.738 187.421C133.012 184.16 127.191 181.108 126.802 180.639C125.008 178.474 126.968 174.366 129.795 174.366C130.545 174.366 137.188 177.308 144.557 180.904C157.727 187.331 158.017 187.444 161.472 187.496C164.017 187.535 165.346 187.315 166.289 186.7C167.657 185.807 169.489 181.837 169.054 180.709C168.915 180.346 162.205 176.261 154.145 171.629C146.083 166.998 138.87 162.602 138.116 161.861C137.311 161.071 136.743 159.973 136.743 159.208C136.743 157.442 138.813 155.461 140.659 155.461C141.657 155.461 147.373 158.494 158.526 164.942L174.927 174.423L177.672 174.094C179.181 173.914 181.004 173.463 181.722 173.093C183.413 172.221 184.761 169.357 184.565 167.049L184.411 165.23L166.521 154.455C156.681 148.529 148.43 143.365 148.185 142.979C147.389 141.726 147.677 139.091 148.722 138.049C150.841 135.937 151.855 136.39 172.097 148.497C184.481 155.904 191.895 160.046 193.118 160.241C198.483 161.096 202.799 155.64 200.406 151.028C198.358 147.081 166.578 123.509 150.22 113.805C141.83 108.828 126.527 100.737 125.503 100.737C124.929 100.737 123.088 101.198 121.414 101.762C118.712 102.671 118.034 103.192 115.411 106.377C110.413 112.448 104.254 117.063 97.9086 119.494C95.3051 120.491 93.4069 120.82 89.325 120.979C84.5467 121.166 83.9118 121.083 82.1344 120.04C78.7497 118.053 78.0943 116.706 78.0943 111.735C78.0943 107.764 78.2401 107.109 79.7749 104.186C80.6989 102.426 83.5529 97.9075 86.117 94.145C88.6811 90.3829 90.7156 87.3044 90.6382 87.3044C90.5608 87.3044 87.9838 86.8532 84.9106 86.3015C78.2196 85.101 76.4317 84.4329 70.75 81.0116L66.4005 78.3923L61.9617 86.2065ZM0.114995 126.607C0.114995 127.838 0.212327 128.342 0.331621 127.726C0.450415 127.11 0.450415 126.103 0.331621 125.487C0.212327 124.871 0.114995 125.375 0.114995 126.607ZM56.3244 144.952C54.6598 146.257 49.5441 153.445 49.1418 155.044C48.4106 157.95 51.8631 162.689 54.9139 162.967C57.7814 163.229 58.3924 162.907 60.7498 159.895C64.9251 154.559 65.8655 152.93 65.8635 151.034C65.8585 146.115 59.782 142.241 56.3244 144.952ZM82.2417 145.037C80.61 145.986 63.3039 169.907 63.0294 171.594C62.677 173.758 64.3446 176.948 66.5328 178.296C68.6197 179.581 71.5636 179.665 72.6373 178.47C73.0675 177.992 76.6948 173.122 80.6983 167.65C84.7019 162.177 88.7295 156.82 89.6494 155.745C91.6479 153.408 91.8905 150.676 90.3257 148.119C88.5243 145.174 84.5881 143.673 82.2417 145.037ZM95.3281 161.804C92.7381 164.167 80.3709 181.41 80.0525 183.102C79.6581 185.196 81.3552 188.515 83.48 189.806C85.0643 190.768 87.5061 191.066 89.032 190.482C89.4647 190.317 93.2457 185.565 97.4334 179.923C104.411 170.521 105.048 169.489 105.048 167.574C105.048 165.197 103.861 163.287 101.309 161.556C99.0846 160.046 97.1679 160.126 95.3281 161.804ZM106.42 181.378C100.785 188.584 98.3094 192.399 98.3094 193.874C98.3094 197.309 101.084 200.518 104.534 201.076C107.059 201.485 108.075 200.61 113.227 193.597C117.444 187.856 117.776 187.232 117.776 185.048C117.776 182.93 117.556 182.473 115.596 180.519C113.648 178.579 113.167 178.346 111.103 178.346C108.865 178.346 108.714 178.444 106.42 181.378Z" fill="white"/>
</svg>
