<svg width="176" height="172" viewBox="0 0 176 172" fill="none" xmlns="http://www.w3.org/2000/svg">
<path fill-rule="evenodd" clip-rule="evenodd" d="M14.2338 116.368C-8.27056 61.1307 32.367 0.694168 92.013 0.694168H95.2307C139.839 0.694168 176 36.8556 176 81.4624C176 131.128 135.738 171.389 86.0732 171.389H7.78128C4.59514 171.389 1.75579 169.378 0.698386 166.372C-0.359122 163.367 0.595468 160.021 3.07971 158.026L22.8172 142.175C23.6802 141.482 23.9855 140.305 23.5678 139.279L14.2338 116.368ZM92.013 15.7113C43.0319 15.7113 9.66062 65.342 28.1411 110.703L37.4751 133.614C40.3984 140.789 38.2615 149.033 32.2204 153.884L29.1224 156.372H86.0732C127.444 156.372 160.983 122.834 160.983 81.4624C160.983 45.1494 131.545 15.7113 95.2307 15.7113H92.013Z" fill="white"/>
<path d="M141.181 62.7956L141.172 62.7921L120.729 55.397C119.696 55.0235 118.556 55.5524 118.174 56.5819L116.667 60.6419C116.28 61.6834 116.817 62.8404 117.861 63.2184L128.413 67.0365L112.449 71.4607L93.146 57.9508C92.4518 57.4649 91.5266 57.4692 90.837 57.9617L91.4064 58.7592L90.837 57.9617L71.953 71.4466L42.0783 62.0302C40.5566 61.5506 39.1134 62.9584 39.5553 64.4916L49.3969 98.6411C49.6437 99.4975 50.4274 100.087 51.3187 100.087H55.4271C56.764 100.087 57.7245 98.8009 57.3448 97.5191L50.351 73.9125L71.3721 80.3049C71.9594 80.4835 72.5962 80.3825 73.0994 80.0309L91.9991 66.8268L111.303 80.0451L111.868 79.22L111.303 80.0451C111.801 80.3862 112.426 80.484 113.005 80.3115L132.77 74.4141L128.192 87.5324C127.738 88.8324 128.703 90.1914 130.08 90.1914H134.532C135.385 90.1914 136.145 89.6501 136.423 88.8434L144.288 66.0362C144.641 65.0105 144.113 63.8899 143.096 63.5105L141.181 62.7956Z" fill="white" stroke="white" stroke-width="2"/>
<path d="M53.086 113.34L53.0914 113.357L53.0974 113.374L53.648 114.938C53.9298 115.739 54.6859 116.274 55.5345 116.274H126.526C127.397 116.274 128.168 115.71 128.432 114.88L128.919 113.348L128.92 113.345L129.803 110.595C130.218 109.304 129.255 107.983 127.899 107.983H54.1333C52.7843 107.983 51.8222 109.291 52.2242 110.579L53.086 113.34Z" fill="white" stroke="white" stroke-width="2"/>
</svg>
