<svg width="256" height="256" viewBox="0 0 256 256" fill="none" xmlns="http://www.w3.org/2000/svg">
<path fill-rule="evenodd" clip-rule="evenodd" d="M200.067 180.617C203.978 143.034 203.978 105.146 200.067 67.563C198.672 54.161 183.22 47.3723 172.406 55.4107L136.344 82.2174C125.355 90.3858 112.027 94.7969 98.3349 94.7969H64.6843C58.6176 94.7969 53.6995 99.715 53.6995 105.782V142.398C53.6995 148.465 58.6175 153.382 64.6843 153.382H70.1704L62.7415 181.108C61.9137 184.197 63.4235 187.435 66.3224 188.787L98.6718 203.872C100.438 204.696 102.477 204.696 104.243 203.872C106.008 203.049 107.319 201.486 107.824 199.605L118.92 158.192C119.038 157.753 119.109 157.311 119.134 156.874C125.264 158.991 131.073 162.045 136.344 165.962L172.406 192.769C183.22 200.807 198.672 194.018 200.067 180.617ZM186.956 68.9271C190.772 105.603 190.772 142.577 186.956 179.252C186.619 182.492 182.884 184.133 180.271 182.19L144.208 155.383C130.946 145.524 114.86 140.201 98.3349 140.201H66.8813V107.979H98.3349C114.86 107.979 130.946 102.655 144.208 92.7965L180.271 65.9899C182.884 64.047 186.619 65.6878 186.956 68.9271ZM106.488 153.906C103.795 153.559 101.072 153.382 98.3349 153.382H83.8172L76.9055 179.177L97.124 188.606L106.187 154.781C106.268 154.478 106.369 154.186 106.488 153.906Z" fill="white"/>
</svg>
