<svg width="25" height="25" viewBox="0 0 25 25" fill="none" xmlns="http://www.w3.org/2000/svg">
<path fill-rule="evenodd" clip-rule="evenodd" d="M14.3706 6.17339C13.5001 5.33803 12.1255 5.33803 11.255 6.17339L6.62854 10.6127C6.51519 10.7215 6.43894 10.8632 6.4106 11.0177C5.85647 14.0396 5.81557 17.1332 6.28961 20.1687L6.40213 20.8892H9.37859V14.6779C9.37859 14.2636 9.71438 13.9279 10.1286 13.9279H15.497C15.9112 13.9279 16.247 14.2636 16.247 14.6779V20.8892H19.2235L19.336 20.1687C19.81 17.1332 19.7691 14.0396 19.215 11.0177C19.1867 10.8632 19.1104 10.7215 18.9971 10.6127L14.3706 6.17339ZM10.2164 5.09107C11.6674 3.69881 13.9582 3.69881 15.4092 5.09107L20.0356 9.53041C20.3762 9.8572 20.6053 10.2829 20.6904 10.7472C21.2749 13.9348 21.3181 17.1982 20.818 20.4001L20.6373 21.5576C20.5625 22.0363 20.1502 22.3892 19.6657 22.3892H15.497C15.0828 22.3892 14.747 22.0534 14.747 21.6392V15.4279H10.8786V21.6392C10.8786 22.0534 10.5428 22.3892 10.1286 22.3892H5.95986C5.47538 22.3892 5.06309 22.0363 4.98834 21.5576L4.80758 20.4001C4.30753 17.1982 4.35068 13.9348 4.93521 10.7472C5.02034 10.2829 5.24942 9.8572 5.58999 9.53041L10.2164 5.09107Z" fill="white"/>
</svg>
