<svg width="24" height="25" viewBox="0 0 24 25" fill="none" xmlns="http://www.w3.org/2000/svg">
<path fill-rule="evenodd" clip-rule="evenodd" d="M12.7429 5.18852C12.2732 4.87465 11.7268 4.87465 11.2571 5.18852L11.2401 5.19966L5.06101 9.14979C4.37822 9.58537 4 10.3371 4 11.0903V19.5292C4 20.3259 4.62926 20.9531 5.41791 20.9531H18.5821C19.3707 20.9531 20 20.3259 20 19.5292V11.0903C20 10.3113 19.5879 9.61295 18.9195 9.13736L12.7599 5.19966L12.7429 5.18852ZM13.845 3.51959C12.7073 2.7643 11.2927 2.7643 10.155 3.5196L3.98456 7.46418C3.9847 7.46409 3.98442 7.46427 3.98456 7.46418C2.69746 8.28549 2 9.68904 2 11.0903V19.5292C2 21.4257 3.51999 22.9531 5.41791 22.9531H18.5821C20.48 22.9531 22 21.4257 22 19.5292V11.0903C22 9.54142 21.1651 8.26974 20.052 7.48868C20.0403 7.48042 20.0283 7.47243 20.0162 7.46469L13.845 3.51959Z" fill="white"/>
</svg>
