<svg width="11" height="17" viewBox="0 0 11 17" fill="none" xmlns="http://www.w3.org/2000/svg">
<path fill-rule="evenodd" clip-rule="evenodd" d="M5.5 17C2.46 17 0 14.3654 0 11.1154V4.14103C0 1.85396 1.73 9.3435e-08 3.87 0C6.01 -9.3437e-08 7.73999 1.85396 7.73999 4.14103V11.2399C7.73999 12.564 6.74 13.6374 5.5 13.6374C4.26 13.6374 3.26001 12.564 3.26001 11.2399V4.3901C3.26001 4.029 3.53 3.73625 3.87 3.73625C4.21 3.73625 4.47998 4.029 4.47998 4.3901V11.2399C4.47998 11.8418 4.94 12.3297 5.5 12.3297C6.06 12.3297 6.52002 11.8418 6.52002 11.2399V4.14103C6.52002 2.57624 5.33 1.30769 3.87 1.30769C2.41 1.30769 1.21997 2.57624 1.21997 4.14103V11.1154C1.21997 13.6432 3.14 15.6923 5.5 15.6923C7.86 15.6923 9.78003 13.6431 9.78003 11.1154V4.3901C9.78003 4.029 10.05 3.73625 10.39 3.73625C10.73 3.73625 11 4.029 11 4.3901V11.1154C11 14.3654 8.54 17 5.5 17Z" fill="white"/>
</svg>
