<svg width="16" height="12" viewBox="0 0 16 12" fill="none" xmlns="http://www.w3.org/2000/svg">
<path d="M15.06 0.92052C14.763 0.62875 14.411 0.39724 14.022 0.23928C13.634 0.08131 13.217 0 12.797 0C12.376 0 11.96 0.08131 11.572 0.23928C11.183 0.39724 10.83 0.62875 10.534 0.92052L11.29 1.66122C11.488 1.46703 11.723 1.31298 11.982 1.20788C12.242 1.10278 12.519 1.04869 12.8 1.04869C13.08 1.04869 13.358 1.10278 13.617 1.20788C13.876 1.31298 14.111 1.46703 14.309 1.66122C14.508 1.85542 14.665 2.08597 14.772 2.3397C14.879 2.59343 14.935 2.86538 14.935 3.14002C14.935 3.41466 14.879 3.68661 14.772 3.94034C14.665 4.19407 14.508 4.42462 14.309 4.61882L10.049 8.7918C9.64901 9.184 9.10699 9.4046 8.54099 9.4051C7.97499 9.4056 7.43301 9.1859 7.03201 8.7944C6.63201 8.4029 6.40601 7.87161 6.40601 7.31744C6.40501 6.76327 6.62999 6.23161 7.02899 5.83941L7.78 5.09871L7.02899 4.358L6.27301 5.09871C5.97501 5.38947 5.739 5.73497 5.578 6.11539C5.416 6.49582 5.33301 6.90368 5.33301 7.3156C5.33301 7.72751 5.416 8.1354 5.578 8.5158C5.739 8.8962 5.97501 9.2417 6.27301 9.5325C6.87601 10.1151 7.68999 10.4397 8.53699 10.4349C8.95899 10.4366 9.377 10.3563 9.767 10.1988C10.158 10.0412 10.512 9.8094 10.811 9.5168L15.071 5.34387C15.668 4.75566 16.002 3.95942 16 3.13004C15.998 2.30065 15.66 1.50596 15.06 0.92052Z" fill="white"/>
<path d="M1.715 10.341C1.516 10.1471 1.358 9.91674 1.25 9.66294C1.143 9.40914 1.08701 9.13704 1.08701 8.86224C1.08701 8.58744 1.143 8.31534 1.25 8.06154C1.358 7.80776 1.516 7.57732 1.715 7.38345L5.97501 3.21048C6.17301 3.0157 6.40799 2.86114 6.66699 2.75568C6.92599 2.65022 7.20399 2.59592 7.48499 2.59592C7.76499 2.59592 8.043 2.65022 8.302 2.75568C8.561 2.86114 8.797 3.0157 8.995 3.21048C9.192 3.40588 9.348 3.63814 9.452 3.8935C9.556 4.14886 9.60699 4.42212 9.60199 4.6971C9.60299 4.97293 9.54899 5.24635 9.44199 5.50152C9.33499 5.7567 9.178 5.98857 8.979 6.18372L7.85001 7.3052L8.60599 8.04594L9.73499 6.94007C10.336 6.35142 10.673 5.55304 10.673 4.72057C10.673 3.8881 10.336 3.08972 9.73499 2.50107C9.13399 1.91243 8.31899 1.58173 7.46899 1.58173C6.61899 1.58173 5.804 1.91243 5.203 2.50107L0.941986 6.67404C0.643986 6.9649 0.406995 7.31072 0.244995 7.69163C0.0829951 8.07254 0 8.48104 0 8.89354C0 9.30604 0.0829951 9.71454 0.244995 10.0954C0.406995 10.4763 0.643986 10.8221 0.941986 11.113C1.54899 11.6912 2.365 12.0101 3.211 11.9998C4.065 12.0006 4.88399 11.6705 5.48999 11.0817L4.73401 10.341C4.53601 10.5358 4.30099 10.6903 4.04199 10.7958C3.78299 10.9013 3.505 10.9556 3.224 10.9556C2.944 10.9556 2.66601 10.9013 2.40701 10.7958C2.14801 10.6903 1.913 10.5358 1.715 10.341Z" fill="white"/>
</svg>
