<svg width="16" height="16" viewBox="0 0 16 16" fill="none" xmlns="http://www.w3.org/2000/svg">
<path d="M13.096 0H2.79999C2.26999 0 1.76099 0.210715 1.38599 0.585785C1.01099 0.960855 0.799988 1.46957 0.799988 2.00001V12.304C0.800988 12.834 1.01302 13.3418 1.38702 13.7166C1.76202 14.0913 2.26999 14.3025 2.79999 14.304H13.096C13.626 14.3025 14.134 14.0913 14.509 13.7166C14.883 13.3418 15.095 12.834 15.096 12.304V2.00001C15.096 1.73735 15.044 1.47729 14.944 1.23464C14.843 0.991985 14.696 0.771505 14.51 0.585785C14.324 0.400065 14.104 0.252755 13.861 0.152241C13.619 0.051732 13.359 0 13.096 0ZM1.59998 2.00001C1.59998 1.68174 1.72599 1.37651 1.95099 1.15147C2.17699 0.926425 2.48199 0.800005 2.79999 0.800005H13.096C13.414 0.800005 13.719 0.926425 13.945 1.15147C14.17 1.37651 14.296 1.68174 14.296 2.00001V8.928L11.192 5.82401C10.966 5.60103 10.661 5.47601 10.344 5.47601C10.027 5.47601 9.72197 5.60103 9.49597 5.82401L5.84802 9.48C5.77202 9.5532 5.67003 9.5941 5.56403 9.5941C5.45803 9.5941 5.35603 9.5532 5.28003 9.48L4.83197 9.032C4.60497 8.81148 4.30101 8.68815 3.98401 8.68815C3.66701 8.68815 3.36299 8.81148 3.13599 9.032L1.59998 10.568V2.00001ZM14.296 12.304C14.296 12.6223 14.17 12.9275 13.945 13.1525C13.719 13.3776 13.414 13.504 13.096 13.504H2.79999C2.48199 13.504 2.17699 13.3776 1.95099 13.1525C1.72599 12.9275 1.59998 12.6223 1.59998 12.304V11.704L3.70801 9.6C3.78301 9.5276 3.88398 9.4874 3.98798 9.488C4.09498 9.4873 4.198 9.5274 4.276 9.6L4.716 10.048C4.942 10.271 5.24703 10.396 5.56403 10.396C5.88103 10.396 6.18599 10.271 6.41199 10.048L10.068 6.392C10.105 6.3545 10.149 6.32476 10.198 6.30445C10.247 6.28414 10.299 6.27368 10.352 6.27368C10.405 6.27368 10.457 6.28414 10.506 6.30445C10.555 6.32476 10.599 6.3545 10.636 6.392L14.3 10.056L14.296 12.304Z" fill="white"/>
<path d="M4.79796 6.00397C4.40196 6.00397 4.01496 5.88668 3.68596 5.66691C3.35796 5.44715 3.101 5.13479 2.95 4.76934C2.798 4.40389 2.75899 4.00176 2.83599 3.61379C2.91299 3.22583 3.10398 2.86947 3.38298 2.58976C3.66298 2.31006 4.01897 2.11957 4.40697 2.0424C4.79497 1.96523 5.19798 2.00484 5.56298 2.15622C5.92798 2.30759 6.24099 2.56394 6.46099 2.89283C6.67999 3.22173 6.79796 3.60841 6.79796 4.00397C6.79796 4.53441 6.58696 5.04311 6.21196 5.41819C5.83696 5.79326 5.32796 6.00397 4.79796 6.00397ZM4.79796 2.80397C4.55996 2.80397 4.32797 2.87435 4.13097 3.00621C3.93397 3.13807 3.78001 3.32548 3.68901 3.54475C3.59801 3.76403 3.57396 4.00531 3.62096 4.23808C3.66696 4.47086 3.78096 4.68468 3.94896 4.8525C4.11696 5.02033 4.33098 5.13461 4.56298 5.18092C4.79598 5.22722 5.03801 5.20345 5.25701 5.11263C5.47601 5.0218 5.66397 4.868 5.79497 4.67066C5.92697 4.47332 5.99797 4.24131 5.99797 4.00397C5.99797 3.68571 5.87098 3.38049 5.64598 3.15545C5.42098 2.9304 5.11596 2.80397 4.79796 2.80397Z" fill="white"/>
<path d="M2.20001 12H1C0.447715 12 0 12.4477 0 13V14.2C0 14.7523 0.447715 15.2 1 15.2H2.20001C2.7523 15.2 3.20001 14.7523 3.20001 14.2V13C3.20001 12.4477 2.7523 12 2.20001 12Z" fill="white"/>
<path d="M15 12H13.8C13.2477 12 12.8 12.4477 12.8 13V14.2C12.8 14.7523 13.2477 15.2 13.8 15.2H15C15.5523 15.2 16 14.7523 16 14.2V13C16 12.4477 15.5523 12 15 12Z" fill="white"/>
</svg>
