<svg width="15" height="15" viewBox="0 0 15 15" fill="none" xmlns="http://www.w3.org/2000/svg">
<path d="M7.5 10.7693C6.26 10.7693 5.18 10.0762 4.62 9.05255L3.60999 9.60145C4.34999 10.9828 5.82 11.9232 7.5 11.9232C9.18 11.9232 10.65 10.9828 11.39 9.60145L10.38 9.05255C9.82 10.0762 8.74 10.7693 7.5 10.7693Z" fill="white"/>
<path d="M4.62 5.76923C4.62 5.3444 4.96 5 5.38 5C5.81 5 6.15002 5.3444 6.15002 5.76923C6.15002 6.19408 5.81 6.53846 5.38 6.53846C4.96 6.53846 4.62 6.19408 4.62 5.76923Z" fill="white"/>
<path d="M9.62 5C9.19 5 8.84998 5.3444 8.84998 5.76923C8.84998 6.19408 9.19 6.53846 9.62 6.53846C10.04 6.53846 10.38 6.19408 10.38 5.76923C10.38 5.3444 10.04 5 9.62 5Z" fill="white"/>
<path fill-rule="evenodd" clip-rule="evenodd" d="M7.5 0C3.36 0 0 3.35786 0 7.5C0 11.6422 3.36 15 7.5 15C11.64 15 15 11.6422 15 7.5C15 3.35786 11.64 0 7.5 0ZM1.15002 7.5C1.15002 3.99512 4 1.15385 7.5 1.15385C11 1.15385 13.85 3.99512 13.85 7.5C13.85 11.0048 11 13.8462 7.5 13.8462C4 13.8462 1.15002 11.0048 1.15002 7.5Z" fill="white"/>
</svg>
