<svg width="16" height="16" viewBox="0 0 16 16" fill="none" xmlns="http://www.w3.org/2000/svg">
<path d="M15.6801 8.32686L11.12 3.76343C10.9 3.54914 10.6101 3.42877 10.3101 3.42877C10.0001 3.42877 9.71 3.54914 9.5 3.76343L6.43994 6.82514L4 0H2.85999L0 8H1.14001L1.70996 6.28571H5.14001L5.59998 7.66171L1.47998 11.7851C1.36998 11.8913 1.28998 12.0173 1.22998 12.156C1.16998 12.2947 1.14001 12.4433 1.14001 12.5934C1.14001 12.7436 1.16998 12.8922 1.22998 13.0309C1.28998 13.1696 1.36998 13.2956 1.47998 13.4017L4.07996 16H9.56006L15.6801 9.876C15.7801 9.77427 15.86 9.65348 15.92 9.52052C15.97 9.38757 16 9.24506 16 9.10114C16 8.95722 15.97 8.81472 15.92 8.68176C15.86 8.54881 15.7801 8.42859 15.6801 8.32686ZM2.08997 5.14286L3.43005 1.14286L4.76001 5.14286H2.08997ZM9.07996 14.8571H4.55005L2.29004 12.5931L5.89001 8.98686L10.42 13.5166L9.07996 14.8571ZM11.23 12.7086L6.69995 8.17886L10.3101 4.57143L14.84 9.10114L11.23 12.7086Z" fill="white"/>
</svg>
