<svg width="16" height="12" viewBox="0 0 16 12" fill="none" xmlns="http://www.w3.org/2000/svg">
<path fill-rule="evenodd" clip-rule="evenodd" d="M5.65301 3.87914L5.82454 5.42291L5.47743 5.45061C4.99338 5.48926 4.59813 5.85316 4.51967 6.33236C4.33882 7.43681 4.33882 8.56331 4.51967 9.66776C4.59813 10.147 4.99338 10.5108 5.47743 10.5495L6.2255 10.6092C7.40655 10.7035 8.59325 10.7035 9.77435 10.6092L10.5224 10.5495C11.0065 10.5108 11.4017 10.147 11.4802 9.66776C11.661 8.56331 11.661 7.43681 11.4802 6.33236C11.4017 5.85316 11.0065 5.48926 10.5224 5.45061L10.1753 5.42291L10.3468 3.87914C10.367 3.69715 10.367 3.51348 10.3468 3.33149L10.3354 3.22905C10.2147 2.14235 9.36035 1.28252 8.27445 1.15477C8.09205 1.13331 7.90775 1.13331 7.72535 1.15477C6.63944 1.28252 5.78514 2.14235 5.6644 3.22904L5.65301 3.33149C5.63279 3.51348 5.63279 3.69715 5.65301 3.87914ZM8.1868 1.89963C8.06265 1.88502 7.93715 1.88502 7.81295 1.89963C7.07365 1.98661 6.49202 2.57201 6.40981 3.31187L6.39843 3.41432C6.38432 3.54126 6.38432 3.66937 6.39843 3.79632L6.57282 5.36591C7.5232 5.30496 8.47655 5.30496 9.42695 5.36591L9.60135 3.79632C9.61545 3.66937 9.61545 3.54126 9.60135 3.41432L9.59 3.31187C9.50775 2.57201 8.92615 1.98661 8.1868 1.89963ZM7.9999 7.25006C7.5857 7.25006 7.2499 7.58586 7.2499 8.00006C7.2499 8.41426 7.5857 8.75006 7.9999 8.75006C8.4141 8.75006 8.7499 8.41426 8.7499 8.00006C8.7499 7.58586 8.4141 7.25006 7.9999 7.25006Z" fill="white"/>
</svg>
