<svg width="16" height="12" viewBox="0 0 16 12" fill="none" xmlns="http://www.w3.org/2000/svg">
<path d="M5.2144 1.20654C5.35058 1.0505 5.33448 0.813614 5.17845 0.677434C5.02241 0.541254 4.78552 0.557349 4.64934 0.713389L4.00343 1.45347C3.63705 1.87327 3.42994 2.40853 3.41832 2.96561L3.38998 4.32444C3.38566 4.5315 3.55002 4.70286 3.75708 4.70717C3.96414 4.71149 4.1355 4.54714 4.13982 4.34008L4.16815 2.98125C4.1761 2.60009 4.31781 2.23386 4.5685 1.94663L5.2144 1.20654Z" fill="white"/>
<path fill-rule="evenodd" clip-rule="evenodd" d="M5.1186 3.85037C5.18805 2.74 6.10885 1.875 7.2214 1.875H7.5001V1.5C7.5001 1.22386 7.72395 1 8.0001 1C8.27625 1 8.5001 1.22386 8.5001 1.5V1.875H8.7788C9.89135 1.875 10.8122 2.74 10.8816 3.85037L10.9921 5.6171C11.0342 6.2907 11.2604 6.9398 11.6459 7.49375C11.9942 7.9943 11.6841 8.6856 11.0787 8.75825L9.3751 8.96265V9.5C9.3751 10.2594 8.7595 10.875 8.0001 10.875C7.2407 10.875 6.62509 10.2594 6.62509 9.5V8.96265L4.92153 8.75825C4.31606 8.6856 4.00595 7.9943 4.3543 7.49375C4.73983 6.9398 4.96597 6.2907 5.0081 5.6171L5.1186 3.85037ZM7.3751 9.5C7.3751 9.84515 7.6549 10.125 8.0001 10.125C8.34525 10.125 8.6251 9.84515 8.6251 9.5V9.125H7.3751V9.5Z" fill="white"/>
<path d="M10.8216 0.677434C10.6655 0.813614 10.6494 1.0505 10.7856 1.20654L11.4315 1.94663C11.6822 2.23386 11.8239 2.60009 11.8319 2.98125L11.8602 4.34008C11.8645 4.54714 12.0359 4.71149 12.2429 4.70718C12.45 4.70286 12.6144 4.5315 12.61 4.32444L12.5817 2.96561C12.5701 2.40853 12.363 1.87327 11.9966 1.45347L11.3507 0.713389C11.2145 0.557349 10.9776 0.541254 10.8216 0.677434Z" fill="white"/>
</svg>
