<svg width="24" height="24" viewBox="0 0 24 24" fill="none" xmlns="http://www.w3.org/2000/svg">
<path d="M6.4288 2.41309C6.70116 2.10101 6.66896 1.62723 6.35689 1.35487C6.04481 1.08251 5.57103 1.1147 5.29867 1.42678L4.00686 2.90695C3.2741 3.74655 2.85987 4.81707 2.83663 5.93122L2.77995 8.64888C2.77131 9.063 3.10003 9.40572 3.51415 9.41435C3.92827 9.42299 4.27099 9.09428 4.27963 8.68016L4.3363 5.9625C4.3522 5.20018 4.63562 4.46773 5.13699 3.89326L6.4288 2.41309Z" fill="white"/>
<path fill-rule="evenodd" clip-rule="evenodd" d="M6.2372 7.70075C6.3761 5.48001 8.21769 3.75 10.4428 3.75H11.0002V3C11.0002 2.44772 11.4479 2 12.0002 2C12.5525 2 13.0002 2.44772 13.0002 3V3.75H13.5576C15.7827 3.75 17.6243 5.48001 17.7632 7.70075L17.9842 11.2342C18.0684 12.5814 18.5207 13.8796 19.2918 14.9875C19.9884 15.9886 19.3682 17.3712 18.1573 17.5165L14.7502 17.9253V19C14.7502 20.5187 13.519 21.75 12.0002 21.75C10.4814 21.75 9.25018 20.5187 9.25018 19V17.9253L5.84305 17.5165C4.63212 17.3712 4.0119 15.9886 4.70859 14.9875C5.47965 13.8796 5.93193 12.5814 6.0162 11.2342L6.2372 7.70075ZM10.7502 19C10.7502 19.6903 11.3098 20.25 12.0002 20.25C12.6905 20.25 13.2502 19.6903 13.2502 19V18.25H10.7502V19Z" fill="white"/>
<path d="M17.6431 1.35487C17.331 1.62723 17.2988 2.10101 17.5712 2.41309L18.863 3.89326C19.3643 4.46773 19.6478 5.20018 19.6637 5.9625L19.7203 8.68016C19.729 9.09428 20.0717 9.42299 20.4858 9.41436C20.8999 9.40572 21.2287 9.063 21.22 8.64888L21.1633 5.93122C21.1401 4.81707 20.7259 3.74655 19.9931 2.90695L18.7013 1.42678C18.4289 1.1147 17.9552 1.08251 17.6431 1.35487Z" fill="white"/>
</svg>
