<svg width="24" height="24" viewBox="0 0 24 24" fill="none" xmlns="http://www.w3.org/2000/svg">
<path d="M8.34195 18.6581L2.62762 12.9437C1.79081 12.1068 1.7908 10.7503 2.62761 9.9134C3.46444 9.07655 4.82124 9.07655 5.65808 9.9134L9.85709 14.1124L18.3419 5.62762C19.1788 4.79081 20.5355 4.7908 21.3724 5.62761C22.2092 6.46444 22.2092 7.82124 21.3724 8.65808L11.3724 18.658M8.34195 18.6581L11.3724 18.658ZM8.34195 18.6581C9.1788 19.4948 10.5355 19.4948 11.3724 18.658ZM8.34195 18.6581L11.3724 18.658Z" fill="#FFC600"/>
<path d="M8.34195 18.6581L2.62762 12.9437C1.79081 12.1068 1.7908 10.7503 2.62761 9.9134C3.46444 9.07655 4.82124 9.07655 5.65808 9.9134L9.85709 14.1124L18.3419 5.62762C19.1788 4.79081 20.5355 4.7908 21.3724 5.62761C22.2092 6.46444 22.2092 7.82124 21.3724 8.65808L11.3724 18.658M8.34195 18.6581L11.3724 18.658M8.34195 18.6581C9.1788 19.4948 10.5355 19.4948 11.3724 18.658" stroke="#FFC600" stroke-width="1.5"/>
</svg>
