<svg width="24" height="24" viewBox="0 0 24 24" fill="none" xmlns="http://www.w3.org/2000/svg">
<g clip-path="url(#clip0_34_34)">
<path d="M20.825 6.15065C20.4537 5.78594 20.0137 5.49655 19.5275 5.2991C19.0425 5.10164 18.5212 5 17.9962 5C17.47 5 16.95 5.10164 16.465 5.2991C15.9787 5.49655 15.5375 5.78594 15.1675 6.15065L16.1125 7.07653C16.36 6.83379 16.6537 6.64123 16.9775 6.50985C17.3025 6.37848 17.6487 6.31086 18 6.31086C18.35 6.31086 18.6975 6.37848 19.0212 6.50985C19.345 6.64123 19.6387 6.83379 19.8862 7.07653C20.135 7.31928 20.3312 7.60746 20.465 7.92463C20.5987 8.24179 20.6687 8.58173 20.6687 8.92503C20.6687 9.26833 20.5987 9.60826 20.465 9.92543C20.3312 10.2426 20.135 10.5308 19.8862 10.7735L14.5612 15.9898C14.0613 16.48 13.3837 16.7558 12.6762 16.7564C11.9687 16.757 11.2913 16.4824 10.79 15.993C10.29 15.5036 10.0075 14.8395 10.0075 14.1468C10.0063 13.4541 10.2875 12.7895 10.7862 12.2993L11.725 11.3734L10.7862 10.4475L9.84126 11.3734C9.46876 11.7368 9.17375 12.1687 8.9725 12.6442C8.77 13.1198 8.66626 13.6296 8.66626 14.1445C8.66626 14.6594 8.77 15.1693 8.9725 15.6448C9.17375 16.1203 9.46876 16.5521 9.84126 16.9156C10.595 17.6439 11.6125 18.0496 12.6712 18.0436C13.1987 18.0458 13.7212 17.9454 14.2087 17.7485C14.6975 17.5515 15.14 17.2618 15.5137 16.896L20.8387 11.6798C21.585 10.9446 22.0025 9.94928 22 8.91255C21.9975 7.87581 21.575 6.88245 20.825 6.15065Z" fill="white"/>
<path d="M4.14375 17.9261C3.895 17.6838 3.6975 17.3958 3.5625 17.0786C3.42875 16.7613 3.35876 16.4212 3.35876 16.0777C3.35876 15.7342 3.42875 15.3941 3.5625 15.0768C3.6975 14.7596 3.895 14.4715 4.14375 14.2292L9.46876 9.01299C9.71626 8.76951 10.01 8.57631 10.3337 8.44449C10.6575 8.31266 11.005 8.24479 11.3562 8.24479C11.7062 8.24479 12.0538 8.31266 12.3775 8.44449C12.7013 8.57631 12.9962 8.76951 13.2437 9.01299C13.49 9.25724 13.685 9.54756 13.815 9.86676C13.945 10.186 14.0087 10.5275 14.0025 10.8713C14.0037 11.2161 13.9362 11.5578 13.8025 11.8768C13.6687 12.1958 13.4725 12.4856 13.2238 12.7295L11.8125 14.1314L12.7575 15.0573L14.1687 13.675C14.92 12.9392 15.3413 11.9412 15.3413 10.9006C15.3413 9.86001 14.92 8.86204 14.1687 8.12623C13.4175 7.39043 12.3987 6.97705 11.3362 6.97705C10.2737 6.97705 9.255 7.39043 8.50375 8.12623L3.17748 13.3424C2.80498 13.706 2.50874 14.1383 2.30624 14.6144C2.10374 15.0906 2 15.6012 2 16.1168C2 16.6324 2.10374 17.1431 2.30624 17.6191C2.50874 18.0953 2.80498 18.5275 3.17748 18.8911C3.93624 19.6139 4.95625 20.0125 6.01375 19.9996C7.08125 20.0006 8.10499 19.588 8.86249 18.852L7.91751 17.9261C7.67001 18.1696 7.37624 18.3628 7.05249 18.4946C6.72874 18.6265 6.38125 18.6944 6.03 18.6944C5.68 18.6944 5.33251 18.6265 5.00876 18.4946C4.68501 18.3628 4.39125 18.1696 4.14375 17.9261Z" fill="white"/>
</g>
<defs>
<clipPath id="clip0_34_34">
<rect width="20" height="15" fill="white" transform="translate(2 5)"/>
</clipPath>
</defs>
</svg>
