<svg width="24" height="24" viewBox="0 0 24 24" fill="none" xmlns="http://www.w3.org/2000/svg">
<g clip-path="url(#clip0_34_52)">
<path d="M12 16.3591C10.3466 16.3591 8.90664 15.4349 8.15997 14.0701L6.81329 14.8019C7.79996 16.6437 9.75997 17.8976 12 17.8976C14.24 17.8976 16.2 16.6437 17.1866 14.8019L15.84 14.0701C15.0933 15.4349 13.6533 16.3591 12 16.3591Z" fill="white"/>
<path d="M8.15997 9.69239C8.15997 9.12595 8.61331 8.66675 9.17331 8.66675C9.74664 8.66675 10.2 9.12595 10.2 9.69239C10.2 10.2589 9.74664 10.718 9.17331 10.718C8.61331 10.718 8.15997 10.2589 8.15997 9.69239Z" fill="white"/>
<path d="M14.8267 8.66675C14.2533 8.66675 13.8 9.12595 13.8 9.69239C13.8 10.2589 14.2533 10.718 14.8267 10.718C15.3867 10.718 15.84 10.2589 15.84 9.69239C15.84 9.12595 15.3867 8.66675 14.8267 8.66675Z" fill="white"/>
<path fill-rule="evenodd" clip-rule="evenodd" d="M12 2C6.48 2 2 6.47715 2 12C2 17.5229 6.48 22 12 22C17.52 22 22 17.5229 22 12C22 6.47715 17.52 2 12 2ZM3.53336 12C3.53336 7.32683 7.33333 3.53847 12 3.53847C16.6667 3.53847 20.4667 7.32683 20.4667 12C20.4667 16.6731 16.6667 20.4616 12 20.4616C7.33333 20.4616 3.53336 16.6731 3.53336 12Z" fill="white"/>
</g>
<defs>
<clipPath id="clip0_34_52">
<rect width="20" height="20" fill="white" transform="translate(2 2)"/>
</clipPath>
</defs>
</svg>
