<svg width="16" height="16" viewBox="0 0 16 16" fill="none" xmlns="http://www.w3.org/2000/svg">
<g clip-path="url(#clip0_34_42)">
<path fill-rule="evenodd" clip-rule="evenodd" d="M7.88235 14C5.73647 14 4 12.1403 4 9.84617V4.92308C4 3.30868 5.22118 2 6.73176 2C8.24235 2 9.46352 3.30868 9.46352 4.92308V9.93405C9.46352 10.8687 8.75765 11.6264 7.88235 11.6264C7.00706 11.6264 6.30118 10.8687 6.30118 9.93405V5.09889C6.30118 4.844 6.49176 4.63735 6.73176 4.63735C6.97176 4.63735 7.16234 4.844 7.16234 5.09889V9.93405C7.16234 10.3589 7.48706 10.7033 7.88235 10.7033C8.27765 10.7033 8.60237 10.3589 8.60237 9.93405V4.92308C8.60237 3.81852 7.76235 2.92308 6.73176 2.92308C5.70118 2.92308 4.86116 3.81852 4.86116 4.92308V9.84617C4.86116 11.6305 6.21647 13.0769 7.88235 13.0769C9.54824 13.0769 10.9036 11.6304 10.9036 9.84617V5.09889C10.9036 4.844 11.0941 4.63735 11.3341 4.63735C11.5741 4.63735 11.7647 4.844 11.7647 5.09889V9.84617C11.7647 12.1403 10.0282 14 7.88235 14Z" fill="white"/>
</g>
<defs>
<clipPath id="clip0_34_42">
<rect width="7.76471" height="12" fill="white" transform="translate(4 2)"/>
</clipPath>
</defs>
</svg>
