<svg width="24" height="24" viewBox="0 0 24 24" fill="none" xmlns="http://www.w3.org/2000/svg">
<g clip-path="url(#clip0_34_46)">
<path d="M21.6001 12.4086L15.9 6.70429C15.625 6.43643 15.2626 6.28596 14.8876 6.28596C14.5001 6.28596 14.1375 6.43643 13.875 6.70429L10.0499 10.5314L7 2H5.57499L2 12H3.42501L4.13745 9.85714H8.42501L8.99997 11.5771L3.84997 16.7314C3.71247 16.8641 3.61247 17.0216 3.53747 17.195C3.46247 17.3684 3.42501 17.5541 3.42501 17.7418C3.42501 17.9295 3.46247 18.1153 3.53747 18.2886C3.61247 18.462 3.71247 18.6195 3.84997 18.7521L7.09995 22H13.9501L21.6001 14.345C21.7251 14.2178 21.825 14.0669 21.9 13.9007C21.9625 13.7345 22 13.5563 22 13.3764C22 13.1965 21.9625 13.0184 21.9 12.8522C21.825 12.686 21.7251 12.5357 21.6001 12.4086ZM4.61246 8.42857L6.28756 3.42858L7.95001 8.42857H4.61246ZM13.3499 20.5714H7.68756L4.86255 17.7414L9.36251 13.2336L15.025 18.8957L13.3499 20.5714ZM16.0375 17.8858L10.3749 12.2236L14.8876 7.71429L20.55 13.3764L16.0375 17.8858Z" fill="white"/>
</g>
<defs>
<clipPath id="clip0_34_46">
<rect width="20" height="20" fill="white" transform="translate(2 2)"/>
</clipPath>
</defs>
</svg>
