<svg width="24" height="24" viewBox="0 0 24 24" fill="none" xmlns="http://www.w3.org/2000/svg">
<path d="M18.37 2H5.5C4.8375 2 4.20125 2.26339 3.7325 2.73223C3.26375 3.20107 3 3.83696 3 4.50001V17.38C3.00125 18.0425 3.26629 18.6773 3.73379 19.1458C4.20254 19.6141 4.8375 19.8781 5.5 19.88H18.37C19.0325 19.8781 19.6675 19.6141 20.1363 19.1458C20.6038 18.6773 20.8688 18.0425 20.87 17.38V4.50001C20.87 4.17169 20.805 3.84661 20.68 3.5433C20.5538 3.23998 20.37 2.96438 20.1375 2.73223C19.905 2.50008 19.63 2.31594 19.3263 2.1903C19.0238 2.06467 18.6988 2 18.37 2ZM3.99999 4.50001C3.99999 4.10218 4.1575 3.72064 4.43875 3.43934C4.72125 3.15803 5.1025 3.00001 5.5 3.00001H18.37C18.7675 3.00001 19.1488 3.15803 19.4313 3.43934C19.7125 3.72064 19.87 4.10218 19.87 4.50001V13.16L15.99 9.28001C15.7075 9.00129 15.3263 8.84501 14.93 8.84501C14.5338 8.84501 14.1525 9.00129 13.87 9.28001L9.31004 13.85C9.21504 13.9415 9.08755 13.9926 8.95505 13.9926C8.82255 13.9926 8.69505 13.9415 8.60005 13.85L8.03998 13.29C7.75623 13.0143 7.37628 12.8602 6.98003 12.8602C6.58378 12.8602 6.20375 13.0143 5.92 13.29L3.99999 15.21V4.50001ZM19.87 17.38C19.87 17.7779 19.7125 18.1594 19.4313 18.4406C19.1488 18.722 18.7675 18.88 18.37 18.88H5.5C5.1025 18.88 4.72125 18.722 4.43875 18.4406C4.1575 18.1594 3.99999 17.7779 3.99999 17.38V16.63L6.63503 14C6.72878 13.9095 6.85499 13.8592 6.98499 13.86C7.11874 13.8591 7.24751 13.9093 7.34501 14L7.89502 14.56C8.17752 14.8388 8.5588 14.995 8.95505 14.995C9.3513 14.995 9.7325 14.8388 10.015 14.56L14.585 9.99C14.6313 9.94313 14.6863 9.90595 14.7475 9.88056C14.8088 9.85518 14.8738 9.8421 14.94 9.8421C15.0063 9.8421 15.0713 9.85518 15.1325 9.88056C15.1938 9.90595 15.2488 9.94313 15.295 9.99L19.875 14.57L19.87 17.38Z" fill="white"/>
<path d="M7.99746 9.50488C7.50246 9.50488 7.01871 9.35827 6.60746 9.08356C6.19746 8.80886 5.87626 8.41841 5.68751 7.96159C5.49751 7.50478 5.44875 7.00212 5.545 6.51716C5.64125 6.03221 5.87999 5.58676 6.22874 5.23712C6.57874 4.88749 7.02373 4.64938 7.50873 4.55292C7.99373 4.45646 8.49749 4.50597 8.95374 4.69519C9.40999 4.88441 9.80125 5.20484 10.0763 5.61596C10.35 6.02708 10.4975 6.51043 10.4975 7.00488C10.4975 7.66793 10.2337 8.30381 9.76496 8.77266C9.29621 9.24149 8.65996 9.50488 7.99746 9.50488ZM7.99746 5.50488C7.69996 5.50488 7.40998 5.59286 7.16373 5.75768C6.91748 5.92251 6.72503 6.15677 6.61128 6.43086C6.49753 6.70496 6.46746 7.00656 6.52621 7.29752C6.58371 7.58849 6.72621 7.85577 6.93621 8.06554C7.14621 8.27533 7.41374 8.41818 7.70374 8.47607C7.99499 8.53394 8.29753 8.50423 8.57128 8.39071C8.84503 8.27717 9.07998 8.08492 9.24373 7.83824C9.40873 7.59157 9.49748 7.30156 9.49748 7.00488C9.49748 6.60706 9.33874 6.22553 9.05749 5.94423C8.77624 5.66292 8.39496 5.50488 7.99746 5.50488Z" fill="white"/>
<path d="M4.75001 17H3.25C2.55964 17 2 17.5596 2 18.25V19.75C2 20.4404 2.55964 21 3.25 21H4.75001C5.44038 21 6.00001 20.4404 6.00001 19.75V18.25C6.00001 17.5596 5.44038 17 4.75001 17Z" fill="white"/>
<path d="M20.75 17H19.25C18.5596 17 18 17.5596 18 18.25V19.75C18 20.4404 18.5596 21 19.25 21H20.75C21.4404 21 22 20.4404 22 19.75V18.25C22 17.5596 21.4404 17 20.75 17Z" fill="white"/>
</svg>
