<svg width="24" height="24" viewBox="0 0 24 24" fill="none" xmlns="http://www.w3.org/2000/svg">
<g clip-path="url(#clip0_34_42)">
<path fill-rule="evenodd" clip-rule="evenodd" d="M12.4706 22C8.89412 22 6 18.9005 6 15.0769V6.8718C6 4.18113 8.03529 2 10.5529 2C13.0706 2 15.1059 4.18113 15.1059 6.8718V15.2234C15.1059 16.7812 13.9294 18.044 12.4706 18.044C11.0118 18.044 9.83531 16.7812 9.83531 15.2234V7.16482C9.83531 6.74 10.1529 6.39559 10.5529 6.39559C10.9529 6.39559 11.2706 6.74 11.2706 7.16482V15.2234C11.2706 15.9315 11.8118 16.5055 12.4706 16.5055C13.1294 16.5055 13.6706 15.9315 13.6706 15.2234V6.8718C13.6706 5.03087 12.2706 3.53846 10.5529 3.53846C8.83529 3.53846 7.43526 5.03087 7.43526 6.8718V15.0769C7.43526 18.0508 9.69412 20.4615 12.4706 20.4615C15.2471 20.4615 17.5059 18.0507 17.5059 15.0769V7.16482C17.5059 6.74 17.8235 6.39559 18.2235 6.39559C18.6235 6.39559 18.9412 6.74 18.9412 7.16482V15.0769C18.9412 18.9005 16.0471 22 12.4706 22Z" fill="white"/>
</g>
<defs>
<clipPath id="clip0_34_42">
<rect width="12.9412" height="20" fill="white" transform="translate(6 2)"/>
</clipPath>
</defs>
</svg>
