<svg width="16" height="16" viewBox="0 0 16 16" fill="none" xmlns="http://www.w3.org/2000/svg">
<g clip-path="url(#clip0_34_46)">
<path d="M13.7601 8.24515L10.34 4.82257C10.175 4.66186 9.95757 4.57158 9.73257 4.57158C9.50007 4.57158 9.2825 4.66186 9.125 4.82257L6.82995 7.11885L5 2H4.14499L2 8H2.85501L3.28247 6.71428H5.85501L6.19998 7.74628L3.10998 10.8388C3.02748 10.9185 2.96748 11.013 2.92248 11.117C2.87748 11.221 2.85501 11.3325 2.85501 11.4451C2.85501 11.5577 2.87748 11.6692 2.92248 11.7732C2.96748 11.8772 3.02748 11.9717 3.10998 12.0513L5.05997 14H9.17004L13.7601 9.407C13.8351 9.3307 13.895 9.24011 13.94 9.14039C13.9775 9.04068 14 8.9338 14 8.82586C14 8.71792 13.9775 8.61104 13.94 8.51132C13.895 8.41161 13.8351 8.32144 13.7601 8.24515ZM3.56748 5.85714L4.57254 2.85715L5.57001 5.85714H3.56748ZM8.80997 13.1428H5.41254L3.71753 11.4448L6.41751 8.74015L9.815 12.1374L8.80997 13.1428ZM10.4225 11.5315L7.02496 8.13414L9.73257 5.42857L13.13 8.82586L10.4225 11.5315Z" fill="white"/>
</g>
<defs>
<clipPath id="clip0_34_46">
<rect width="12" height="12" fill="white" transform="translate(2 2)"/>
</clipPath>
</defs>
</svg>
