<svg width="16" height="16" viewBox="0 0 16 16" fill="none" xmlns="http://www.w3.org/2000/svg">
<g clip-path="url(#clip0_34_52)">
<path d="M8.00001 10.6153C7.00801 10.6153 6.14401 10.0609 5.69601 9.24194L4.888 9.68106C5.48 10.7861 6.65601 11.5385 8.00001 11.5385C9.34401 11.5385 10.52 10.7861 11.112 9.68106L10.304 9.24194C9.85601 10.0609 8.99201 10.6153 8.00001 10.6153Z" fill="white"/>
<path d="M5.69598 6.61538C5.69598 6.27552 5.96798 6 6.30398 6C6.64798 6 6.92 6.27552 6.92 6.61538C6.92 6.95526 6.64798 7.23077 6.30398 7.23077C5.96798 7.23077 5.69598 6.95526 5.69598 6.61538Z" fill="white"/>
<path d="M9.69597 6C9.35197 6 9.07996 6.27552 9.07996 6.61538C9.07996 6.95526 9.35197 7.23077 9.69597 7.23077C10.032 7.23077 10.304 6.95526 10.304 6.61538C10.304 6.27552 10.032 6 9.69597 6Z" fill="white"/>
<path fill-rule="evenodd" clip-rule="evenodd" d="M8 2C4.688 2 2 4.68629 2 8C2 11.3138 4.688 14 8 14C11.312 14 14 11.3138 14 8C14 4.68629 11.312 2 8 2ZM2.92002 8C2.92002 5.1961 5.2 2.92308 8 2.92308C10.8 2.92308 13.08 5.1961 13.08 8C13.08 10.8038 10.8 13.077 8 13.077C5.2 13.077 2.92002 10.8038 2.92002 8Z" fill="white"/>
</g>
<defs>
<clipPath id="clip0_34_52">
<rect width="12" height="12" fill="white" transform="translate(2 2)"/>
</clipPath>
</defs>
</svg>
