<svg width="16" height="18" viewBox="0 0 16 18" fill="none" xmlns="http://www.w3.org/2000/svg">
<g clip-path="url(#clip0_70_55)">
<mask id="mask0_70_55" style="mask-type:luminance" maskUnits="userSpaceOnUse" x="0" y="1" width="16" height="16">
<path d="M16 1H0V17H16V1Z" fill="white"/>
</mask>
<g mask="url(#mask0_70_55)">
<path fill-rule="evenodd" clip-rule="evenodd" d="M8 17C12.4183 17 16 13.4183 16 9C16 4.58172 12.4183 1 8 1C3.58172 1 0 4.58172 0 9C0 13.4183 3.58172 17 8 17ZM4 5.17094C4 4.34015 4.63547 3.66667 5.41935 3.66667H9.54953C9.83273 3.66667 10.0995 3.80741 10.2702 4.04686L11.8175 6.21721C11.9359 6.38339 12 6.58599 12 6.79427V12.8291C12 13.6599 11.3645 14.3333 10.5807 14.3333H5.41935C4.63547 14.3333 4 13.6599 4 12.8291V5.17094ZM5.41935 4.48718C5.06304 4.48718 4.77419 4.79331 4.77419 5.17094V12.8291C4.77419 13.2067 5.06304 13.5128 5.41935 13.5128H10.5807C10.937 13.5128 11.2258 13.2067 11.2258 12.8291V7.30266H9.5484C9.3346 7.30266 9.16127 7.11898 9.16127 6.8924V4.48718H5.41935ZM9.93547 9.547C9.93547 9.32047 9.7622 9.13673 9.5484 9.13673H6.45161C6.23783 9.13673 6.06451 9.32047 6.06451 9.547C6.06451 9.7736 6.23783 9.95727 6.45161 9.95727H9.5484C9.7622 9.95727 9.93547 9.7736 9.93547 9.547ZM9.93547 11.7351C9.93547 11.5085 9.7622 11.3248 9.5484 11.3248H6.45161C6.23783 11.3248 6.06451 11.5085 6.06451 11.7351C6.06451 11.9616 6.23783 12.1453 6.45161 12.1453H9.5484C9.7622 12.1453 9.93547 11.9616 9.93547 11.7351Z" fill="white"/>
</g>
</g>
<defs>
<clipPath id="clip0_70_55">
<rect width="16" height="16" fill="white" transform="translate(0 1)"/>
</clipPath>
</defs>
</svg>
