<svg width="16" height="18" viewBox="0 0 16 18" fill="none" xmlns="http://www.w3.org/2000/svg">
<path d="M9.36364 9.15961C9.36364 8.84521 9.11942 8.59033 8.81818 8.59033H4.45455C4.1533 8.59033 3.90909 8.84521 3.90909 9.15961C3.90909 9.474 4.1533 9.72888 4.45455 9.72888H8.81818C9.11942 9.72888 9.36364 9.474 9.36364 9.15961Z" fill="white"/>
<path d="M9.36364 12.1957C9.36364 11.8813 9.11942 11.6265 8.81818 11.6265H4.45455C4.1533 11.6265 3.90909 11.8813 3.90909 12.1957C3.90909 12.5101 4.1533 12.765 4.45455 12.765H8.81818C9.11942 12.765 9.36364 12.5101 9.36364 12.1957Z" fill="white"/>
<path fill-rule="evenodd" clip-rule="evenodd" d="M11.9091 9.15961C10.9836 9.15961 10.1844 9.83514 9.992 10.7799L9.97586 10.8592C9.92647 11.1018 9.91775 11.3516 9.95011 11.5974L10.0614 12.442C10.0199 12.4472 9.97825 12.4527 9.93673 12.4583C9.29695 12.545 8.81818 13.1138 8.81818 13.7871V15.5381C8.81818 16.2114 9.29695 16.7802 9.93673 16.8669C11.2461 17.0444 12.5721 17.0444 13.8815 16.8669C14.5212 16.7802 15 16.2114 15 15.5381V13.7871C15 13.1138 14.5212 12.545 13.8815 12.4583C13.8399 12.4527 13.7983 12.4472 13.7568 12.442L13.8681 11.5974C13.9004 11.3516 13.8917 11.1018 13.8423 10.8592L13.8262 10.7799C13.6338 9.83514 12.8345 9.15961 11.9091 9.15961ZM12.6684 12.3448L12.7873 11.4423C12.8025 11.3269 12.7984 11.2098 12.7752 11.0958L12.7591 11.0166C12.6738 10.5977 12.3194 10.2982 11.9091 10.2982C11.4988 10.2982 11.1444 10.5977 11.0591 11.0166L11.043 11.0958C11.0198 11.2098 11.0156 11.3269 11.0308 11.4423L11.1497 12.3448C11.6556 12.3186 12.1625 12.3186 12.6684 12.3448ZM10.0772 13.5873C11.2934 13.4226 12.5248 13.4226 13.7409 13.5873C13.8371 13.6004 13.9091 13.6859 13.9091 13.7871V15.5381C13.9091 15.6393 13.8371 15.7248 13.7409 15.7378C12.5248 15.9027 11.2934 15.9027 10.0772 15.7378C9.98109 15.7248 9.90909 15.6393 9.90909 15.5381V13.7871C9.90909 13.6859 9.98109 13.6004 10.0772 13.5873Z" fill="white"/>
<path fill-rule="evenodd" clip-rule="evenodd" d="M3 1C1.89543 1 1 1.93454 1 3.08734V13.7138C1 14.8666 1.89543 15.8011 3 15.8011H8.09091V14.6626H3C2.49792 14.6626 2.09091 14.2378 2.09091 13.7138V3.08734C2.09091 2.56333 2.49792 2.13855 3 2.13855H8.27273V5.47606C8.27273 5.79046 8.51695 6.04533 8.81818 6.04533H11.1818V8.4723C11.3561 8.42547 11.5389 8.40057 11.7273 8.40057C11.9156 8.40057 12.0984 8.42547 12.2727 8.4723V5.33989C12.2727 5.05088 12.1824 4.76975 12.0155 4.53914L9.83527 1.52756C9.59469 1.1953 9.21884 1 8.81978 1H3Z" fill="white"/>
</svg>
