<svg width="16" height="18" viewBox="0 0 16 18" fill="none" xmlns="http://www.w3.org/2000/svg">
<path d="M11.3871 9.82051C11.3871 9.48066 11.0838 9.20513 10.7097 9.20513H5.29032C4.9162 9.20513 4.6129 9.48066 4.6129 9.82051C4.6129 10.1604 4.9162 10.4359 5.29032 10.4359H10.7097C11.0838 10.4359 11.3871 10.1604 11.3871 9.82051Z" fill="white"/>
<path d="M11.3871 13.1026C11.3871 12.7627 11.0838 12.4872 10.7097 12.4872H5.29032C4.9162 12.4872 4.6129 12.7627 4.6129 13.1026C4.6129 13.4424 4.9162 13.7179 5.29032 13.7179H10.7097C11.0838 13.7179 11.3871 13.4424 11.3871 13.1026Z" fill="white"/>
<path fill-rule="evenodd" clip-rule="evenodd" d="M3.48387 1C2.11207 1 1 2.01023 1 3.25641V14.7436C1 15.9898 2.11207 17 3.48387 17H12.5161C13.8879 17 15 15.9898 15 14.7436V5.69141C15 5.37899 14.8878 5.07509 14.6805 4.82581L11.9728 1.57029C11.6741 1.21112 11.2073 1 10.7117 1H3.48387ZM2.35484 3.25641C2.35484 2.68996 2.86032 2.23077 3.48387 2.23077H10.0323V5.83861C10.0323 6.17847 10.3356 6.45399 10.7097 6.45399H13.6452V14.7436C13.6452 15.3101 13.1397 15.7692 12.5161 15.7692H3.48387C2.86032 15.7692 2.35484 15.3101 2.35484 14.7436V3.25641Z" fill="white"/>
</svg>
