<svg width="16" height="12" viewBox="0 0 16 12" fill="none" xmlns="http://www.w3.org/2000/svg">
<path d="M8 1.875C6.96447 1.875 6.125 2.71447 6.125 3.75C6.125 4.78553 6.96447 5.625 8 5.625C9.03555 5.625 9.875 4.78553 9.875 3.75C9.875 2.71447 9.03555 1.875 8 1.875Z" fill="white"/>
<path d="M6 6.625C4.96447 6.625 4.125 7.46445 4.125 8.5V9.09415C4.125 9.47075 4.39794 9.79185 4.76963 9.85255C6.90905 10.2018 9.09095 10.2018 11.2303 9.85255C11.602 9.79185 11.875 9.47075 11.875 9.09415V8.5C11.875 7.46445 11.0355 6.625 10 6.625H9.82955C9.7373 6.625 9.64565 6.6396 9.55795 6.6682L9.1252 6.80955C8.39405 7.04825 7.60595 7.04825 6.87479 6.80955L6.44204 6.6682C6.35435 6.6396 6.26268 6.625 6.17043 6.625H6Z" fill="white"/>
</svg>
