<svg width="24" height="22" viewBox="0 0 24 22" fill="none" xmlns="http://www.w3.org/2000/svg">
<path d="M17.1544 13.4358C17.1544 15.4882 15.4741 17.152 13.4246 17.152H13.363C13.5885 16.4315 13.7113 15.663 13.7113 14.8651C13.7113 10.7602 10.3908 7.43256 6.29172 7.43256C4.28317 7.43256 2.48006 8.22018 1.14786 9.50178V3.71628C1.14786 1.66383 2.80761 0 4.85714 0H13.4246C15.4741 0 17.1544 1.66383 17.1544 3.71628V13.4358ZM23.7333 1.59325C23.9178 1.79999 24 2.06245 24 2.33377V14.818C24 15.4495 23.4875 15.9615 22.8727 15.9615C22.5857 15.9615 22.34 15.865 22.1146 15.6893L18.2817 12.4305V4.72019L22.1146 1.46249C22.6065 1.0535 23.3234 1.11204 23.7333 1.59325ZM12.5634 14.8651C12.5634 11.3917 9.75544 8.57602 6.29172 8.57602C2.80751 8.57602 0 11.3917 0 14.8651C0 18.3384 2.80751 21.1543 6.29172 21.1543C9.75544 21.1543 12.5634 18.3384 12.5634 14.8651ZM6.86565 15.4368V18.2995C6.86565 18.6153 6.59915 18.8713 6.29172 18.8713C5.96379 18.8713 5.71829 18.6153 5.71829 18.2995V15.4368H2.84864C2.54121 15.4368 2.27471 15.1809 2.27471 14.8651C2.27471 14.5494 2.54121 14.2934 2.84864 14.2934H5.71829V11.4339C5.71829 11.1181 5.96379 10.8622 6.29172 10.8622C6.59915 10.8622 6.86565 11.1181 6.86565 11.4339V14.2934H9.71479C10.0222 14.2934 10.2887 14.5494 10.2887 14.8651C10.2887 15.1809 10.0222 15.4368 9.71479 15.4368H6.86565Z" fill="white"/>
</svg>
