<svg width="11" height="11" viewBox="0 0 11 11" fill="none" xmlns="http://www.w3.org/2000/svg">
<path d="M7.90056 3.16441C8.10885 3.37247 8.10885 3.70224 7.90056 3.91039L3.96643 7.84123C3.74658 8.06021 3.37607 8.06065 3.15621 7.84234C2.94793 7.63394 2.94793 7.30258 3.15621 7.09351L7.10221 3.16441C7.32207 2.94568 7.68071 2.94568 7.90056 3.16441ZM7.90056 7.0954C8.10885 7.30347 8.10885 7.63327 7.90056 7.84134C7.68071 8.06009 7.32207 8.06009 7.10221 7.84134L3.15621 3.91221C2.94793 3.70322 2.94793 3.37184 3.15621 3.16338C3.37607 2.94507 3.74658 2.94561 3.96643 3.16457L7.90056 7.0954Z" fill="white"/>
<circle cx="5.5" cy="5.5" r="5" stroke="white"/>
</svg>
